<svg xmlns="http://www.w3.org/2000/svg" xml:space="preserve" width="1024" height="1024">
  <defs>
    <linearGradient id="a" gradientTransform="matrix(.83335 0 0 1.15507 761.935 153.384)">
      <stop offset="0" stop-color="#3b1f0f"></stop>
    </linearGradient>
    <linearGradient id="b" gradientTransform="translate(390.07 96.471)">
      <stop offset="0" stop-color="#a86a2c"></stop>
    </linearGradient>
  </defs>
  <circle cx="512" cy="512" r="480" fill="url(#a)"></circle>
  <circle cx="512" cy="512" r="448" fill="#fabf64"></circle>
  <circle cx="-512" cy="-512" r="432" fill="url(#a)" transform="scale(-1)"></circle>
  <circle cx="512" cy="512" r="416" fill="#fabf64"></circle>
  <path fill="#e94e1b" d="M522.163 97.164c220.38-2.892 418.199 215.479 396.018 379.158C896 640 640 611.842 527.734 603.912c-112.265-7.933-389.275-50.766-396.706-188.583-7.43-137.817 170.754-315.273 391.135-318.165" overflow="visible"></path>
  <path fill="#f4e6d0" d="M840.328 388.61c1.193 7.653 11.542 13.593 20.967 9.94 9.426-3.65 7.253-16.057 4.074-21.301-3.179-5.245-9.848-8.411-17.737-6.44s-8.497 10.147-7.304 17.8m-677.41-28.33c.523 3.373 4.227 5.527 7.918 3.9 3.69-1.626 5.658-3.83 4.858-8.475-.8-4.646-6.079-6.861-9.24-5.07-3.161 1.793-4.059 6.273-3.536 9.645m276.313-132.956c1.437 3.84 3.954 5.052 7.08 4.463 3.124-.589 6.894-2.354 5.585-6.706-1.308-4.352-4.97-6.042-8.859-5-3.888 1.042-5.243 3.403-3.806 7.243m41.513-110.94c1.787 3.35 9.012 4.173 12.789 4.104s15.01-2.254 12.87-8.301c-2.142-6.047-14.116-7.692-19.65-5.486-5.536 2.206-7.797 6.331-6.01 9.682m352.942 225.693c1.595 2.872 4.28 4.862 8.325 3.675s6.64-4.605 4.851-8.07-5.277-5.659-9.07-5.083-5.702 6.605-4.106 9.478M572.21 212.872c3.166 5.26 9.897 9.72 20.28 8.84 10.384-.879 13.038-10.487 12.161-14.145-.876-3.658-4.894-12.509-18.652-12.016s-16.955 12.06-13.79 17.32m132.721 127.58c3.146 5.99 10.966 19.421 27.338 15.222 16.37-4.2 19.091-15.792 16.965-26.754-2.127-10.961-14.726-26.767-32.86-20.336-18.133 6.43-14.588 25.877-11.443 31.868m-49.128-104.508c-.745 7.91 3.193 15.982 13.06 18.019 9.866 2.037 17.698-3.579 18.885-10.973 1.186-7.395-1.671-16.195-12.246-18.113s-18.955 3.158-19.7 11.067m75.118-45.53c-.923 1.55-1.501 6.78 3.255 7.382 4.756.6 7.716-.43 8.01-2.714.296-2.284-.422-6.687-3.748-7.654-3.325-.968-6.594 1.434-7.517 2.985M523.239 141.9c-1.976 6.244 2.28 16.258 10.73 17.223s15.707-4.936 15.79-11.452c.081-6.516-3.986-11.154-9.945-12.545s-14.599.53-16.575 6.774m-233.425 69.841c3.322 4.508 7.238 6.125 13.426 4.008s10.241-10.317 8.931-15.516c-1.31-5.2-9.511-6.814-15.661-4.69s-10.018 11.69-6.696 16.198m25.433-43.43c1.133 4.492 8.447 2.088 10.83.573 2.382-1.515 8.788-5.893 7.881-9.118s-7.582-1.973-10.525-.526-9.319 4.58-8.186 9.072M752.465 256c2.447 23.158 11.576 40.52 44.474 56.702s50.844-7.222 47.116-24.454c-3.728-17.233-19.958-53.3-49.25-66.1s-44.787 10.694-42.34 33.852m-171.53-116.638c.044 22.204 37.823 39.405 54.797 43.427s55.759 7.946 61.537-6.107c5.779-14.052-16.585-39.547-46.877-48.682s-69.5-10.842-69.456 11.362M175.83 319.346c.356 15.476 19.256 17.644 35.468 8.836S260.1 280.232 256 262.785s-31.09-14.402-46.987 3.704-33.54 37.382-33.184 52.857m121.422-17.051c5.364 17.979 35.163 18.593 51.51 14.79 16.348-3.801 51.847-27.731 45.107-51.017-6.74-23.285-33.016-26.09-57.362-16.76-24.345 9.33-44.619 35.008-39.255 52.987m201.179-40.531c4.806 17.064 25.706 25.975 47.503 22.486 21.796-3.489 34.333-22.844 30.787-40.697-3.547-17.853-26.95-34.962-52.424-27.794-25.473 7.167-30.672 28.94-25.866 46.005m-142.488-73.317c5.677 20.795 31.183 19.456 53.477 15.967 22.294-3.49 54.809-22.011 51.355-47.018s-41.784-24.254-61.436-18.053c-19.65 6.2-49.072 28.308-43.396 49.104"></path>
  <path fill="#e2cfaf" d="M512 354.337c157.154 18.144 365.381 123.67 356.159 181.155-4.611 28.743-80.183 52.572-153.733 57.958-80.656 5.907-180.427-5.67-228.608-8.699-134.135-8.43-310.4-72.751-315.244-121.193C165.732 415.116 354.846 336.192 512 354.337" overflow="visible"></path>
  <path fill="#f4e6d0" d="M367.314 388.38c-29.059 7.355-39.948 33.397-49.812 49.463-17.558 28.596-45.265 110.09-42.365 135.724s15.165 51.784 31.42 66.433c11.66 10.507 22.173 20.154 41.047 28.531-10.391 15.345-18.659 35.432-26.73 53.653-8.957 20.22-20.352 34.525-8.707 60.424 23.29 51.797 129.807 88.99 191.272 87.996 61.466-.995 167.446-12.165 192.765-52.559 25.32-40.393-12.442-96.118-29.464-123.632 16.773-5.197 26.992-8.422 38.37-18.02 10.078-8.502 23.292-22.776 32.504-45.09 9.213-22.315 8.196-54.18 5.77-90.653-2.416-36.308-2.574-97.558-31.253-112.814-60.523-32.195-125.935-47.89-190.923-53.355-64.99-5.465-109.15 2.574-153.894 13.899" overflow="visible"></path>
  <path fill="#3b1f0f" d="M522.11 93.164c-111.25 1.46-211.736 46.933-283.57 109.469-71.836 62.535-115.32 142.195-111.507 212.912 1.93 35.777 21.46 65.388 50.797 89.373a223 223 0 0 0 11.451 8.746 259 259 0 0 0 12.3 8.262 300 300 0 0 0 13.067 7.789 346 346 0 0 0 13.758 7.334 397 397 0 0 0 14.371 6.89 454 454 0 0 0 14.903 6.465 513 513 0 0 0 14.38 5.684c-1.057 6.995-1.45 13.054-.898 17.93 3.007 26.583 15.447 53.389 32.717 68.953 10.753 9.69 21.294 19 38.09 27.162-9.596 15.245-17.324 33.663-24.752 50.431-4.366 9.856-9.581 18.61-12.285 28.663-2.704 10.052-2.548 21.376 3.588 35.021 12.433 27.652 45.71 49.99 83.417 65.842s79.99 25.025 111.567 24.514c30.938-.501 72.97-3.542 110.707-11.592s71.477-20.658 85.383-42.842c13.575-21.656 10.12-47.179 1.502-70.174-7.877-21.014-19.794-39.713-28.3-53.32 14.01-4.418 24.203-8.208 34.893-17.227 10.447-8.813 24.126-23.616 33.624-46.62 2.87-6.953 4.786-14.647 6-22.975q5.042-.663 10.035-1.43c40.772-6.272 78.93-17.945 108.552-38.725 29.623-20.78 50.56-50.89 56.245-92.84 11.334-83.641-33.3-180.059-108.176-255.4S633.636 91.7 522.109 93.164m.105 8c108.854-1.428 212.496 51.893 286.08 125.934s116.768 168.65 105.922 248.687c-5.406 39.89-24.786 67.637-52.91 87.365s-65.143 31.21-105.176 37.368q-3.913.601-7.86 1.136.354-3.915.55-7.986a449 449 0 0 0 20.773-3.572c13.937-2.74 26.427-6.497 38.58-10.334a4 4 0 0 0 3.908-1.047c1.978-.654 4.498-1.036 6.406-1.717 14.565-5.195 27.03-11.138 36.377-17.83.449-.321.801-.67 1.237-.996a4 4 0 0 0 1.32-1.065c7.888-6.186 13.418-13.067 14.687-20.982 1.355-8.442-1.314-17.322-6.742-26.254-2.8-4.608-6.41-9.278-10.64-13.992a4 4 0 0 0-1-.986c-3.758-4.104-7.854-8.231-12.58-12.405-7.184-6.343-16.754-12.778-25.918-19.195a4 4 0 0 0-3.518-2.605c-16.927-11.544-35.679-23.044-57.43-34.092-70.963-36.046-162.567-67.082-241.822-76.233-14.89-1.719-30.048-2.577-45.29-2.681-21.16-.145-42.342 1.585-63.337 4.066a4 4 0 0 0-1.36-.234 4 4 0 0 0-.52.039 4 4 0 0 0-1.74.691c-7.977.996-15.958 1.95-23.806 3.264a4 4 0 0 0-2.549.35c-7.162 1.232-14.017 2.778-21.023 4.25a4 4 0 0 0-.244-.063 4 4 0 0 0-2.998.627 4 4 0 0 0-.285.223c-8.777 1.899-17.725 3.603-26.168 5.832a4 4 0 0 0-.633.142c-9.116 2.417-17.502 5.294-26.125 8.035h-.002a4 4 0 0 0-1.043-.033 4 4 0 0 0-2.361 1.084c-4.513 1.467-9.424 2.71-13.774 4.252-25.774 9.14-48.427 19.528-66.652 30.338l-.02.006a4 4 0 0 0-1.369.887c-4.842 2.917-9.558 5.849-13.705 8.81-9.981 7.128-17.876 14.329-23.258 21.582-3.266 4.403-5.623 8.89-6.82 13.389l-.035.12c-.036.138-.077.276-.112.415-.67 2.736-.909 5.474-.636 8.201 1.44 14.413 14.482 27.866 34.185 41.11q.705.472 1.42.945l.002.002a4 4 0 0 0 .502.283c11.113 7.294 24.833 14.387 39.73 21.31a4 4 0 0 0 2.946 1.27c9.453 4.314 18.888 8.646 29.459 12.707a263 263 0 0 0-1.365 6.483 501 501 0 0 1-12.737-5.06 447 447 0 0 1-14.638-6.356 392 392 0 0 1-14.078-6.756 340 340 0 0 1-13.442-7.162 293 293 0 0 1-12.722-7.578 251 251 0 0 1-11.922-8 214 214 0 0 1-11.041-8.428c-28.2-23.055-46.085-50.48-47.871-83.611-3.618-67.1 38.276-145.078 108.771-206.448s169.29-106.07 278.422-107.502m-55.098 254.531c14.977.096 29.848.933 44.424 2.616 77.9 8.993 168.984 39.793 239.117 75.418 18.248 9.268 35.083 18.87 49.89 28.47-25.534 2.665-42.604-3.28-64.845-9.36-4.534-12.588-11.255-22.981-21.693-28.534-61.102-32.504-127.064-48.309-192.467-53.809-16.367-1.376-31.444-1.901-45.555-1.734-22.471.266-42.493 2.281-61.373 5.39-3.512-3.736-6.014-8.693-7.431-15.142 19.867-2.256 39.994-3.442 59.933-3.315m-67.902 4.28c1.25 6.028 3.383 11.321 6.433 15.75a493 493 0 0 0-10.07 1.978c-5.167-4.6-9.62-9.688-13.379-15.285a568 568 0 0 1 17.016-2.443m-25.6 3.877a87.8 87.8 0 0 0 12.498 15.898 667 667 0 0 0-8.404 1.95c-.539-.234-1.742-.72-2.98-1.505-1.912-1.211-4.292-2.979-6.733-5.023-3.088-2.587-6.296-5.653-8.941-8.588a585 585 0 0 1 14.56-2.732m-23.46 4.591c3.462 4.48 8.149 9.046 12.704 12.862a89 89 0 0 0 3.897 3.09l-.424.107a61 61 0 0 0-7.053 2.24c-8.286-2.172-21.99-5.16-29.175-13.58a586 586 0 0 1 20.05-4.719m-28.4 6.907c6.35 9.999 17.712 14.467 26.647 16.949a63 63 0 0 0-6.91 5.207c-9.45.992-14.52-.154-20.146-3.406-4.75-2.745-9.924-7.327-17.407-13.625a563 563 0 0 1 17.817-5.125m154.329 1.396c13.846-.157 28.661.365 44.789 1.72 64.575 5.431 129.435 21.014 189.379 52.901 12.31 6.548 19.486 24.163 23.35 45.315l.013.074.055.303c3.847 21.319 4.505 45.56 5.723 63.857 2.42 36.393 3.183 67.883-5.477 88.86-8.927 21.623-21.676 35.37-31.385 43.56-10.813 9.122-20.21 12.062-36.974 17.256a4 4 0 0 0-2.22 5.926c8.573 13.855 22.08 34.44 30.269 56.285 8.187 21.844 10.953 44.38-.792 63.117-11.414 18.21-43.323 31.385-80.273 39.267s-78.638 10.922-109.166 11.417c-29.889.483-71.597-8.443-108.338-23.89-36.74-15.445-68.366-37.602-79.223-61.747-5.509-12.253-5.477-21.032-3.156-29.662s7.282-17.135 11.873-27.5c8.102-18.291 16.35-38.213 26.385-53.032a4 4 0 0 0-1.69-5.898c-18.336-8.139-28.316-17.324-39.992-27.846-15.239-13.734-27.33-39.228-30.123-63.912-.618-5.466.444-15.225 2.868-26.724s6.13-24.875 10.476-38.348c8.682-26.912 20.044-54.387 28.424-68.059l.031-.05.033-.053c6.681-10.892 13.327-25.059 24.77-35.444a4 4 0 0 0 .293-.263c4.246-3.803 9.15-7.084 14.951-9.49a4 4 0 0 0 .188-.079 53 53 0 0 1 7.15-2.35 888 888 0 0 1 10.094-2.495 4 4 0 0 0 .224-.053 624 624 0 0 1 16.475-3.738 4 4 0 0 0 .373-.08 473 473 0 0 1 18.197-3.485 4 4 0 0 0 .533-.091c19.04-3.224 39.161-5.31 61.893-5.569m-181.207 6.586c9.51 7.884 15.663 13.762 22.465 17.693 4.792 2.77 9.886 4.348 16.078 4.696a97 97 0 0 0-5.252 6.83c-29.615 7.052-49.282 10.31-65.522 10.006-14.115-.266-25.782-3.143-39.728-8.801 16.523-9.165 36.566-18.068 58.957-26.008a518 518 0 0 1 13.002-4.416m-80.623 35.451c16.995 7.406 31.166 11.45 48.242 11.772 15.806.297 33.947-2.507 59.47-8.34-2.668 4.49-5.002 8.76-7.202 12.43-51.383 21.193-83.113 29.073-138.293 18.837.993-2.189 2.37-4.487 4.15-6.886 4.648-6.264 11.96-13.036 21.483-19.836 3.723-2.66 7.783-5.323 12.15-7.977m94.289 27.012a257 257 0 0 0-5.072 10.652c-25.265 21.516-47.135 30.45-98.258 41.96-18.882-12.698-29.678-25.444-30.658-35.247a14.5 14.5 0 0 1-.063-1.91c53.353 9.947 87.048 3.178 134.051-15.455m429.98 16.125c22.307 6.213 42.036 12.02 72.026 6.976 9.53 6.603 18.032 13.168 25.303 19.588a177 177 0 0 1 7.2 6.711c-37.587 3.78-66.341-5.865-101.96-21.976-.741-3.848-1.587-7.632-2.569-11.3m-441.505 9.783a517 517 0 0 0-7.725 20.656c-10.415 14.228-28.865 22.099-43.828 28.16-11.345-5.268-21.684-10.666-30.742-16.09 39.01-9.164 61.354-17.623 82.295-32.726m445.68 10.996c35.754 15.803 66.78 25.144 107.197 19.744 3.485 3.995 6.382 7.873 8.636 11.582 4.809 7.913 6.63 14.906 5.678 20.834-.777 4.842-4.404 10.14-10.842 15.393-37.56-9.34-85.467-34.472-109.435-58.045-.361-3.18-.77-6.358-1.235-9.508m2.392 21.432c25.144 21.688 65.069 42.277 99.668 52.107-7.806 4.72-17.675 9.2-28.957 13.225q-3.123 1.113-6.385 2.182c-20.729-8.852-51.452-27.496-62.807-44.293-.406-7.3-.854-15.173-1.52-23.221m-461.488 5.353c-2.604 8.292-4.95 16.495-6.897 24.245a544 544 0 0 1-21.174-8.684c9.143-3.841 19.268-8.645 28.07-15.56m463.812 31.487c13.161 13.818 33.341 26.062 50.389 34.205-9.378 2.65-19.376 5.018-29.742 7.056a442 442 0 0 1-18.989 3.301c.206-13.813-.612-28.783-1.658-44.562" overflow="visible" paint-order="stroke fill markers"></path>
  <path fill="#3b1f0f" d="M399.281 456.645c-26.065-.237-47.026 23.234-46.85 51.25s18.808 47.711 48.41 47.841c29.603.13 44.781-19.351 44.862-48.695s-20.357-50.16-46.422-50.396m-.426 16.523c6.605.18 10.66 6.275 10.348 12.605-.31 6.33-3.808 11.762-10.568 11.678s-11.12-5.454-11.24-11.726c-.122-6.273 4.855-12.737 11.46-12.557" paint-order="stroke fill markers"></path>
  <path fill="none" stroke="#3b1f0f" stroke-linecap="round" stroke-linejoin="round" stroke-width="8" d="M380.149 440.366c15.077-11.173 34.812-14.735 49.984-.996" paint-order="stroke fill markers"></path>
  <path fill="#3b1f0f" d="M631.883 482.395c-30.75-.521-50.148 24.226-49.12 51.673 1.03 27.448 19.8 46.435 49.26 46.707s47.478-18.071 47.416-46.847c-.06-28.776-16.806-51.013-47.556-51.533m-6.852 14.732q.597 0 1.198.072c6.404.793 9.782 5.748 9.873 12.162s-6.134 12.22-12.932 11.477-9.861-6.039-9.703-12.377c.148-5.942 5.605-11.336 11.564-11.334" paint-order="stroke fill markers"></path>
  <path fill="none" stroke="#3b1f0f" stroke-linecap="round" stroke-linejoin="round" stroke-width="8" d="M615.517 456.13c18.545-10.233 33.733-2.503 47.294 11.523" paint-order="stroke fill markers"></path>
  <path fill="#3b1f0f" d="M471.816 551.88a4 4 0 0 0-1.982.524 4 4 0 0 0-.127 6.877l.002.002c.008.015.05.062.164.178.283.286.752.84 1.238 1.807.974 1.933 2.064 5.58 1.377 12.156-.851 8.158 2.55 17.158 7.971 24.556 5.421 7.4 13.178 13.453 22.234 13.42 16.659-.06 32.693-14.067 36.287-32.742 1.11-5.769 2.786-8.717 3.915-10.146.564-.715.997-1.058 1.207-1.205a.4.4 0 0 0 .07-.057v-.006a4 4 0 0 0-2.836-7.473l-.022.008c-15.285 5.324-25.104 7.499-34.421 6.494-9.322-1.005-18.741-5.27-33.061-13.845l-.004.006-.03-.024a4 4 0 0 0-1.982-.53" overflow="visible"></path>
  <path fill="#e94e1b" d="M503.807 607.37c14.666.205 25.827-11.675 25.888-19.736.064-8.634-16.7-13.078-22.875-8.378-1.18.899-1.884 4.033-1.884 4.033s-.84-3.354-2.097-4.368c-8.027-6.468-22.87-1.92-23.827 5.358-.727 5.527 10.705 22.894 24.795 23.09"></path>
  <path fill="#4caf50" d="M169.394 681.271s-9.973-47.861 8.842-79.342 35.402-36.658 35.402-36.658 12.564 30.507 4.313 62.168c-8.251 31.662-48.557 53.832-48.557 53.832m68.703 109.561c-2.569 10.842-14.376 16.614-24.808 16.394-22.551 1.015-43.83-10.958-58.777-27.16a118 118 0 0 1-9.87-12.066c22.865-16.847 57.987-14.508 77.755 6.163 5.61 5.184 10.92 10.706 15.7 16.669m30.885 22.814s-25.934-15.615-49.25-9.836c-23.318 5.78-30.546 15.992-30.546 15.992s14.607 21.683 37.912 20.304 41.884-26.46 41.884-26.46m-104.49-127.405S147.951 639.162 128 627.769c-19.895-11.362-68.712-1.714-68.712-1.714s13.079 34.214 27.242 44.122c21.741 15.21 77.962 16.064 77.962 16.064m32.137 54.233c-19.75 2.517-40.935 3.481-59.369-5.278-10.534-6.047-18.223-16.247-22.625-27.44 12.189-10.24 29.579-16.5 45.182-10.984 18.597 7.406 29.135 26.353 36.812 43.702m-86.486-159.392c-8.502-36.099 7.906-75.824 7.906-75.824s39.393 18.77 51.568 54.622c12.175 35.851-15.23 67.672-15.23 67.672s-35.742-10.37-44.244-46.47" overflow="visible"></path>
  <path fill="#3b1f0f" d="M118.203 501.262a4 4 0 0 0-1.59.263 4 4 0 0 0-2.261 2.205S97.335 544.146 106.25 582c7.621 32.36 35.837 45.271 44.486 48.521a4 4 0 0 0 .082 1.465c3.36 13.7 5.55 22.46 7.866 30.293q-.673-1.385-1.381-2.797c-6.758-13.45-15.696-28.55-27.319-35.187-8.696-4.966-20.712-6.22-32.496-6.111-3.928.036-7.83.223-11.574.476-14.977 1.011-27.402 3.47-27.402 3.47a4 4 0 0 0-2.961 5.354s3.338 8.738 8.49 18.746c5.152 10.01 11.816 21.363 20.195 27.225 12.17 8.513 31.913 12.28 48.928 14.426 16.347 2.06 30.144 2.339 31.203 2.357l.065.002a4 4 0 0 0 .29-.015 4 4 0 0 0 .233-.012 4 4 0 0 0 .229-.041 4 4 0 0 0 .335-.066 4 4 0 0 0 .5-.168l.008-.004a4 4 0 0 0 .168-.084 4 4 0 0 0 .788-.479 4 4 0 0 0 .404-.371l.017-.016a4 4 0 0 0 .334-.404v-.002a4 4 0 0 0 .116-.17 594 594 0 0 0 4.271 10.627 50 50 0 0 0-10.828-5.978l-.147-.057c-4.345-1.536-8.773-2.255-13.173-2.3-13.202-.138-26.158 5.797-35.915 13.993a4 4 0 0 0-1.15 4.528c4.68 11.899 12.867 22.85 24.358 29.445a4 4 0 0 0 .273.143c18.765 8.915 39.719 8.253 58.994 5.949 2.236 3.754 4.477 7.646 6.856 11.537a66 66 0 0 0-16.383-3.35 67 67 0 0 0-5.645-.19c-13.183.113-26.34 4.1-37.095 12.024a4 4 0 0 0-.885 5.545 122 122 0 0 0 10.187 12.455l.006.006c11.546 12.512 26.775 22.701 43.696 26.686q-.977.618-1.838 1.217c-5.13 3.557-7.516 6.802-7.516 6.802a4 4 0 0 0-.05 4.547s15.593 23.592 41.464 22.06c20.278-1.2 36.182-17.56 42.225-24.736 4.198 5.222 8.396 10.854 12.435 16.602 14.668 20.872 27.374 43.689 30.803 53.28a4 4 0 0 0 5.113 2.417 4 4 0 0 0 2.42-5.113c-4.126-11.54-16.815-33.873-31.79-55.184-7.489-10.655-15.518-20.954-23.335-29.277s-15.26-14.738-22.574-17.498a54 54 0 0 1-7.8-3.668 173 173 0 0 0-9.544-9.521l-.033-.032a57.6 57.6 0 0 0-9.455-7.945c-5.768-7.69-10.503-16.357-15.65-24.857-3.108-7.003-6.712-14.39-11.206-21.248-5.556-11.749-10.728-24.275-14.607-34.323 3.745-2.285 10.971-6.995 18.842-13.726 11.432-9.778 24.175-23.67 28.644-40.819 8.66-33.227-4.484-64.7-4.484-64.7a4 4 0 0 0-3.83-2.475 4 4 0 0 0-1.06.18s-5.068 1.676-11.963 7.224c-6.896 5.548-16.059 15.097-25.682 31.2-8.653 14.477-11.575 31.77-12.1 46.753-1.19-4.652-2.513-10.018-4.115-16.55a4 4 0 0 0-.35-.919c4.628-5.81 26.842-36.186 15.166-70.568-12.883-37.936-53.634-56.947-53.634-56.947a4 4 0 0 0-1.567-.385m2.035 9.793c8.822 4.902 35.956 21.736 45.592 50.111 8.775 25.84-4.03 48.905-10.416 58.22-6.107-19.382-11.96-38.71-14.176-58.515a4 4 0 0 0-7.949.89c2.27 20.28 8.078 39.651 14.057 58.643-9.967-4.736-27.66-16.25-33.309-40.238-6.787-28.818 2.798-59.521 6.201-69.111m91.117 59.853c2.83 8.588 8.982 31.516 2.725 55.524-3.782 14.513-15.318 27.534-26.101 36.757-4.43 3.789-8.283 6.649-11.504 8.856 4.076-13.02 8.316-25.674 15.806-37.412a4 4 0 0 0-1.22-5.524 4 4 0 0 0-3.014-.535 4 4 0 0 0-2.51 1.754c-6.644 10.413-10.836 21.241-14.377 32.012-1.069-16.004-.365-40.164 10.51-58.36 9.192-15.379 17.728-24.16 23.83-29.07 2.57-2.068 4.332-3.122 5.855-4.002m-113.81 55.375c11.207.046 22.245 1.404 28.47 4.96 8.33 4.756 17.639 18.892 24.14 31.83a220 220 0 0 1 5.038 10.722c-14.305-9.578-30.54-15.378-45.714-21.664a4 4 0 0 0-3.061 0 4 4 0 0 0-2.166 2.166 4 4 0 0 0 2.166 5.224c16.112 6.674 32.456 12.62 46.107 22.168-4.81-.297-10.903-.805-18.36-1.746-16.532-2.084-35.77-6.348-45.343-13.045-5.783-4.045-12.74-14.753-17.668-24.328a190 190 0 0 1-6.26-13.4c4.493-.763 11.62-1.856 21.56-2.527 3.6-.244 7.355-.375 11.09-.36m50.256 72.461c3.603.012 7.174.576 10.607 1.78 10.165 4.072 17.83 12.153 23.979 21.67a319 319 0 0 0 3.445 6.984c-2.116-1.474-4.247-2.986-6.41-4.457-6.447-4.384-13.263-8.489-21.229-9.446a4 4 0 0 0-4.449 3.495 4 4 0 0 0 3.494 4.447c5.745.69 11.531 3.934 17.686 8.119 2.936 1.997 5.936 4.188 9.074 6.316-15.583 1.192-31.175.443-44.846-5.998-8.685-5.021-15.276-13.34-19.507-22.68 8.167-6.125 18.256-10.262 28.156-10.23m36.55 62.336c9.206.691 18.234 3.488 25.948 8.352 5.208 6.72 11.368 12.896 19.277 17.68l.332.368c-7.717-.42-13.415-.431-18.603-1.152-6.031-.838-11.564-2.538-19.785-7.187a4 4 0 0 0-3.038-.373 4 4 0 0 0-2.412 1.886 4 4 0 0 0 1.512 5.451c8.865 5.014 15.726 7.19 22.621 8.147 6.42.892 12.703.812 21.16 1.326a16.8 16.8 0 0 1-3.021 2.97c-3.172.155-6.38.588-9.572 1.38-3.995.99-7.555 2.112-10.715 3.299-19.198-.892-37.425-11.59-50.604-25.873l-.02-.02c-2.44-2.608-4.708-5.374-6.894-8.205 9.997-6.147 21.992-8.936 33.815-8.049m57.33 31.828c3.616 1.831 8.094 5.253 12.874 9.797-4.652-1.59-10.018-3.004-15.735-3.723a22.1 22.1 0 0 0 2.862-6.074m-10.917 13.662c9.307.064 18.533 2.8 25.336 5.463l-17.756 3.39a4 4 0 0 0-3.18 4.68 4 4 0 0 0 4.68 3.18l17.957-3.43c-7.243 6.883-18.669 15.534-30.94 16.26-16.496.977-28.135-10.957-32.351-16.035.856-.785 1.771-1.63 3.484-2.818 2.647-1.836 6.367-3.975 11.438-5.994q1.936.036 3.888-.047c5.95.104 12.128-1.432 17.393-4.62z" overflow="visible" paint-order="stroke fill markers"></path>
  <path fill="#4caf50" d="M851.277 695.06s6.824-50.776-1.218-70.343c-5.727-13.934-21.773-21.012-21.773-21.012S813.787 617.27 817.476 640c3.005 18.516 33.801 55.06 33.801 55.06m11.008-8.737S896 679.886 917.51 646.49c26.963-41.864 12.333-78.26 12.333-78.26s-25.98 4.435-59.229 33.04c-34.185 29.41-8.329 85.054-8.329 85.054M742.108 844.73s17.6-26.149 40.348-29.234c22.749-3.084 42.785 13.704 42.785 13.704s-18.313 23.402-38.217 23.904c-19.904.503-44.916-8.374-44.916-8.374m40.044-37.912s21.159-43.723 52.377-51.92S888.58 768 888.58 768c.662-.298-1.96 23.375-32.583 37.447s-73.845 1.37-73.845 1.37m58.163-72.019s21.409-55.741 61.512-65.014c39.398-9.11 58.173 3.045 58.173 3.045s0 30.882-25.437 48.114c-38.657 26.187-94.248 13.855-94.248 13.855" overflow="visible"></path>
  <path fill="#3b1f0f" d="M929.863 564.229a4 4 0 0 0-.693.056s-7.098 1.242-18.084 6.074-26.142 13.305-43.08 27.877c-7.627 6.561-12.473 14.341-15.373 22.504-7.203-14.213-22.733-20.695-22.733-20.695a4 4 0 0 0-1.51-.34 4 4 0 0 0-2.837 1.078s-16.02 15.245-12.026 39.858c1.782 10.98 10.52 24.528 18.707 36.138 7.828 11.1 15.298 20.04 15.94 20.805l.045.053.103.107a4 4 0 0 0 .244.254 4 4 0 0 0 .17.14 4 4 0 0 0 .235.186 4 4 0 0 0 .193.121 4 4 0 0 0 .28.164l.158.075a4 4 0 0 0 .332.138l.168.053a4 4 0 0 0 .332.09 4 4 0 0 0 .22.039 4 4 0 0 0 .295.035 4 4 0 0 0 .219.012 4 4 0 0 0 .328-.002 4 4 0 0 0 .2-.018 4 4 0 0 0 .324-.047 4 4 0 0 0 .205-.045l.13-.027a4 4 0 0 0 .174-.06 4 4 0 0 0 .203-.073 4 4 0 0 0 .303-.135l.145-.072c-7.802 16.675-21.458 41.683-39.073 57.187-14.912 13.127-39.284 36.022-59.595 59.323-10.156 11.65-19.295 23.386-25.756 34.191s-10.541 20.633-9.342 29.412a4 4 0 0 0 4.506 3.422 4 4 0 0 0 3.422-4.504c-.716-5.24 2.218-14.088 8.28-24.224a141 141 0 0 1 3.679-5.809l.088.088a4 4 0 0 0 .228.19 4 4 0 0 0 .197.156 4 4 0 0 0 .256.158 4 4 0 0 0 .203.12 4 4 0 0 0 .28.122 4 4 0 0 0 .21.092l.007.004s25.178 9.138 46.355 8.603c11.487-.29 21.63-6.871 29.04-13.072s12.226-12.367 12.226-12.367a4 4 0 0 0-.58-5.531s-6.891-5.926-17.485-10.334c14.507 1.11 32.127.275 47.342-6.717 16.045-7.374 25.042-17.457 29.818-25.75 2.389-4.147 3.737-7.832 4.457-10.567.36-1.367.564-2.482.66-3.4a7.5 7.5 0 0 0 .05-1.389c-.017-.278.017-.55-.27-1.324-.129-.348-.42-.93-1.143-1.59l.069.012-.139-.11c-.04-.034-.014-.046-.059-.081-.02-.016-.063-.014-.084-.03-.626-.575-16.347-14.846-39.804-15.777-5.523-.22-11.46.312-17.71 1.953a50 50 0 0 0-4.902 1.568c3.943-4.382 7.617-9.073 11.01-13.865.58.093 2.46.398 3.147.535a4 4 0 0 0 1.412.24c11.38 2.12 57.07 8.836 92.627-15.251C964.08 705.779 964 672.83 964 672.83a4 4 0 0 0-1.826-3.357s-5.54-3.497-15.711-5.506c-5.086-1.005-11.416-1.692-19.002-1.545-5.694.11-12.096.691-19.21 1.963a96.6 96.6 0 0 0 12.622-15.729c27.891-43.305 12.682-81.92 12.682-81.92a4 4 0 0 0-3.692-2.507m-2.744 8.789c2.454 7.673 9.47 36.461-12.973 71.306-7.479 11.613-16.245 19.74-24.406 25.39-4.088 1.868-7.931 4.153-11.533 6.735a79 79 0 0 1-10.158 4.1c2.431-7.73 6.788-20.678 11.084-28.928 6.47-12.427 19.697-25.836 19.697-25.836a4 4 0 1 0-5.66-5.654s-13.724 13.566-21.133 27.795c-3.924 7.536-7.638 17.839-10.225 25.72-1.352-4.231-2.805-9.77-3.81-16.404.093-6.72-.092-13.515-.85-19.734 1.027-12.025 5.368-24 16.07-33.207 16.313-14.034 30.77-22.08 41.085-26.617 6.18-2.718 10.123-3.949 12.812-4.666m-97.97 35.675c4.414 2.534 13.548 8.633 17.21 17.543 1.27 3.089 2.15 7.465 2.721 12.514-.357 5.72-.072 11.336.58 16.568q.13 1.037.278 2.057a236 236 0 0 1-.25 9.666 296 296 0 0 1-.356 6.227l-5.178-18.504a4 4 0 0 0-4.93-2.774 4 4 0 0 0-2.775 4.93l5.502 19.654a259 259 0 0 1-3.18-4.406c-7.962-11.29-16.124-25.273-17.347-32.809-2.582-15.907 4.289-26.493 7.724-30.666m98.464 61.721c7.015-.136 12.766.507 17.3 1.402 6.076 1.2 9.097 2.478 10.898 3.373-.334 5.704-2.822 28.44-23.493 42.444-26.485 17.942-60.746 17.069-78.095 15.154 11.523-8.635 23.088-15.947 36.261-18.098a4 4 0 0 0 3.303-4.591 4 4 0 0 0-4.592-3.303c-15.848 2.587-28.893 11.281-41.168 20.63 2.272-4.764 5.794-11.37 11.303-19.392 6.353-9.252 14.595-18.792 24.451-25.65a101 101 0 0 0 8.559-5.02c3.318-1.591 6.784-2.848 10.389-3.681 9.59-2.218 17.87-3.132 24.884-3.268m-71.01 12.582a95 95 0 0 0 1.643 4.086c-.74 1.79-1.655 3.948-2.74 6.39.258-2.13.677-5.822 1.098-10.476m-10.539 74.098c20.961-1.184 35.247 10.051 38.334 12.683-.068.343-.074.506-.191.952-.543 2.06-1.64 5.115-3.652 8.609-4.025 6.987-11.652 15.775-26.229 22.475-16.93 7.78-38.107 6.866-52.685 4.808 4.157-.621 8.894-1.605 13.656-3.164 10.558-3.457 28.31-13.121 28.31-13.121a4 4 0 1 0-3.789-7.047s-18.247 9.695-27.011 12.565c-7.762 2.54-17.482 4.736-23.35 5.964 2.195-3.853 5.421-9.041 10.348-15.449 8.926-11.61 21.606-23.892 35.74-27.603a53 53 0 0 1 10.52-1.672m39.915 13.853c.251.226.527.416.818.569a2.8 2.8 0 0 1-.69-.391c-.098-.079-.046-.103-.128-.178m-101.813 24.1c-3.638 5.94-5.615 10.03-5.615 10.03a4 4 0 0 0 2.472 5.58s.879.268 2.479.689q-.789.08-1.584.187c-7.966 1.08-15.166 4.51-21.299 8.715 7.49-8.588 15.583-17.16 23.547-25.201m2.656 24.1a40 40 0 0 1 3.77.064c12.451.8 23.488 7.125 28.773 10.668a83 83 0 0 1-8.336 8.018c-6.722 5.625-15.688 10.996-24.105 11.209-8.832.222-18.941-1.574-27.176-3.534l17.34-3.17a4 4 0 0 0 3.217-4.654 4 4 0 0 0-4.655-3.215l-23.44 4.283c6.884-7.475 18.311-17.664 30.784-19.355a37 37 0 0 1 3.828-.314" overflow="visible" paint-order="stroke fill markers"></path>
  <path fill="#4caf50" d="M418.533 877.842s29.735 16.508 45.284 14.566c4.94-.618-9.993-13.167-9.993-13.167 17.978.318 24.693-8.09 32.995-23.794 0 0-23.045-7.007-39.658-2.538-13.46 3.621-28.628 24.933-28.628 24.933m0 0s-6.006-19.482-18.56-24.428c-22.651-8.925-33.312-3.173-33.312-3.173s-.305 13.185 20.421 20.939c17.753 6.641 31.45 6.662 31.45 6.662m0 0s-8.26-24.834-3.649-36.326c5.048-12.576 25.857-20.78 25.857-20.78s9.105 19.212 1.269 30.615c-10.249 14.915-23.477 26.491-23.477 26.491m0 0s-18.516-7.065-29.188-7.455c-9.359-.342-23.16 5.71-23.16 5.71s12.56 10.824 21.098 11.74c11.057 1.184 31.25-9.995 31.25-9.995" overflow="visible"></path>
  <path fill="#3b1f0f" d="M440.879 816.738a4 4 0 0 0-1.606.278s-5.513 2.167-11.677 5.996c-6.164 3.828-13.305 9.243-16.424 17.015-1.818 4.53-2.038 9.774-1.584 14.973-2.307-2.188-5-4.068-8.149-5.309-11.797-4.648-20.736-5.563-26.851-5.205-6.115.36-9.826 2.235-9.826 2.235a4 4 0 0 0-2.1 3.427s0 4.613 2.99 9.686c2.25 3.815 6.187 8.088 12.71 11.732a98 98 0 0 0-5.319 1.284c-4.827 1.295-8.465 2.64-8.465 2.64a4 3.373 0 0 0-1.004 5.645s3.305 2.406 7.73 4.908 9.83 5.272 15.553 5.789c7.11.643 15.054-1.759 21.72-4.072a142 142 0 0 0 6.759-2.55c1.318 5.007 4.15 10.1 8.195 15.583 6.104 8.27 15.133 17.688 27.166 29.666a4 4 0 0 0 5.657-.014 4 4 0 0 0-.012-5.656c-11.961-11.905-20.798-21.19-26.375-28.746-3.139-4.252-5.193-7.874-6.338-11.09a188 188 0 0 0 10.184 4.596c9.612 3.981 21.03 8.011 30.5 6.828.783-.098 1.733-.34 2.66-1.06s1.615-1.974 1.783-3.02c.335-2.092-.377-3.177-.924-4.156-1.094-1.96-2.626-3.619-4.287-5.332-.215-.222-.245-.21-.463-.43 5.228-1.015 9.7-2.93 13.387-5.92 5.715-4.634 9.665-11.157 13.886-19.143a4 4 0 0 0-2.373-5.697s-13.128-4.25-27.505-4.273c-4.209-.007-8.524.349-12.649 1.279 2.094-5.98 1.493-12.436.402-17.674-1.403-6.741-3.875-11.928-3.875-11.928a4 4 0 0 0-3.476-2.285m-2.34 9.407c.622 1.756 1.328 3.885 1.86 6.437 1.19 5.716 1.229 12.262-1.686 16.504a131 131 0 0 1-4.711 6.426c-3.352 2.612-6.409 5.621-9.107 8.47a120 120 0 0 0-4.606 5.164c-.466-1.78-.943-3.655-1.385-5.921-1.433-7.363-1.936-16.164-.308-20.22 1.928-4.803 7.718-9.779 13.22-13.196 2.548-1.583 4.863-2.763 6.723-3.664m-63.482 26.328c4.878-.287 12.595.385 23.449 4.662 4.813 1.896 9.115 7.207 11.965 12.3.813 1.454 1.241 2.56 1.818 3.825-5.247-.539-12.899-1.746-23.805-5.826-9.66-3.614-13.9-8.204-15.94-11.663-.698-1.185-.89-1.936-1.169-2.753.99-.21 1.913-.442 3.682-.545m85.199 3.021c7.843.092 15.501 1.518 20.363 2.594-3.02 5.205-5.932 9.516-9.19 12.158-4.212 3.416-9.178 5.144-17.534 4.996a4 4 0 0 0-2.645 7.063s3.548 3.013 6.43 5.96c-6.122-.803-14.027-3.3-20.805-6.107A170 170 0 0 1 425.4 876.9c3.467-3.373 8.63-8.695 13.82-15.138 3.154-2.403 6.312-4.272 8.981-4.99 3.676-.99 7.854-1.327 12.055-1.278m-71.057 21.64c1.252.04 2.708.182 4.281.397a114 114 0 0 0 14.079 3.21c-.68.263-1.222.499-2.028.779-6.195 2.15-13.875 3.962-17.822 3.605-2.814-.254-7.96-2.433-11.95-4.687-.757-.429-.65-.431-1.322-.838.547-.157.439-.162 1.032-.32 4.413-1.185 9.983-2.26 13.73-2.145" overflow="visible"></path>
  <path fill="#f4e6d0" d="M746.582 797.742c2.74 27.037 21.418 33.973 34.062 23.061 14.447-11.398 7.334-33.443-17.76-37.773 24.857 4.699 35.528-7.582 31.014-24.254-6.385-17.351-28.946-22.597-39.566-.894 10.594-21.698 1.47-43.763-17.557-43.241-19.539 1.05-25.089 27.447-8.085 46.786-17.097-19.748-42.545-17.054-44.135 2.915-.398 17.628 18.334 28.673 40.689 19.616-22.576 8.924-19.837 36.845-4.374 42.28 17.053 3.578 28.584-1.326 25.712-28.496" overflow="visible"></path>
  <ellipse cx="744.698" cy="775.191" fill="#f2a93b" paint-order="stroke fill markers" rx="12.663" ry="12.309"></ellipse>
  <path fill="#3b1f0f" d="m736.666 710.643-.105.004c-11.543.62-19.501 9.266-21.463 19.796-.963 5.17-.639 10.835 1.017 16.506-5.254-2.35-10.617-3.35-15.629-2.945-10.252.827-18.99 8.368-19.918 20.021a4 4 0 0 0-.011.227c-.232 10.248 5.338 19.002 13.976 23.459 4.435 2.288 9.642 3.457 15.278 3.436-9.419 13.817-4.841 33.743 9.734 38.865a4 4 0 0 0 .504.14c9.063 1.902 17.728 1.81 23.82-3.654 2.348-2.106 3.924-5.017 5.108-8.367 2.467 3.872 5.483 6.88 8.945 8.85 8.013 4.557 17.89 3.22 25.26-3.092 8.406-6.677 10.823-17.213 7.103-26.158-1.696-4.079-4.615-7.784-8.515-10.87 4-.993 7.54-2.54 10.273-4.935 6.492-5.69 8.246-14.853 5.717-24.195a4 4 0 0 0-.108-.336c-3.674-9.986-12.12-16.76-21.556-17.692-4.526-.447-9.186.6-13.467 3.088.479-5.89-.272-11.494-2.266-16.375-3.847-9.417-12.621-16.077-23.697-15.773m.275 8.002c7.918-.195 13.202 3.905 16.018 10.796 2.823 6.909 2.641 16.722-2.22 26.682l-.003.004a4 4 0 0 0 7.188 3.514l.002-.004c4.762-9.73 11.287-12.575 17.383-11.973 6.053.598 12.024 5.08 14.761 12.354 1.903 7.22.59 12.48-3.3 15.89-3.93 3.444-11.442 5.403-23.143 3.192v.002c-.022-.004-.04-.01-.063-.014a4 4 0 0 0-1.423 7.873c.022.004.041.004.064.008v.004c11.488 1.982 18.204 7.842 20.693 13.828 2.49 5.987 1.256 12.137-4.732 16.861l-.135.114c-5.267 4.545-11.009 5.178-16.154 2.252s-10.033-10.044-11.314-22.69h-.002v-.015a4 4 0 0 0-7.957.822l.004.017h-.002c1.374 13.004-.86 19.495-4.079 22.381-3.166 2.84-8.69 3.412-16.474 1.834-11.434-4.214-15.067-26.9 4.662-34.699v-.002l.031-.01a4 4 0 0 0-2.973-7.428l-.029.014-.002-.002c-10.292 4.17-19.323 3.56-25.54.352-6.182-3.19-9.756-8.734-9.634-16.05.7-8.229 5.453-12 12.56-12.573 7.144-.576 16.691 3.002 24.538 12.066l.02.023a4 4 0 0 0 6.029-5.26l-.022-.023c-7.763-8.83-10.179-19.112-8.732-26.877 1.443-7.748 6.017-12.815 13.98-13.263" overflow="visible"></path>
  <path fill="#f4e6d0" d="M810.91 724.276c2.739 27.037 21.417 33.973 34.062 23.061 14.446-11.398 7.333-33.443-17.76-37.773 24.857 4.698 35.528-7.582 31.013-24.254-6.385-17.351-28.946-22.598-39.566-.894 10.595-21.698 1.47-43.763-17.557-43.241-19.539 1.05-25.088 27.446-8.085 46.785-17.097-19.748-42.544-17.053-44.135 2.916-.397 17.628 18.335 28.672 40.69 19.616-22.576 8.924-19.837 36.845-4.375 42.28 17.054 3.578 28.584-1.326 25.713-28.496" overflow="visible"></path>
  <path fill="#3b1f0f" d="m800.992 637.176-.105.004c-11.543.62-19.501 9.266-21.463 19.797-.963 5.17-.639 10.834 1.017 16.506-5.254-2.352-10.617-3.35-15.629-2.946-10.252.827-18.99 8.368-19.917 20.022a4 4 0 0 0-.012.226c-.231 10.249 5.34 19.004 13.978 23.461 4.434 2.288 9.64 3.456 15.274 3.436-9.417 13.817-4.838 33.741 9.736 38.863a4 4 0 0 0 .504.14c9.063 1.903 17.729 1.81 23.82-3.654 2.349-2.106 3.924-5.018 5.108-8.369 2.468 3.874 5.482 6.882 8.945 8.852 8.01 4.556 17.884 3.221 25.252-3.084 8.413-6.676 10.834-17.218 7.113-26.166-1.695-4.078-4.617-7.782-8.517-10.867 4.002-.994 7.54-2.542 10.273-4.938 6.493-5.69 8.247-14.853 5.717-24.195a4 4 0 0 0-.107-.336c-3.675-9.986-12.12-16.759-21.555-17.692-4.525-.447-9.186.6-13.467 3.088.479-5.889-.272-11.494-2.266-16.375-3.847-9.416-12.623-16.077-23.699-15.773m.276 8.004c7.917-.195 13.201 3.905 16.017 10.797 2.823 6.909 2.644 16.72-2.219 26.681l-.002.002a4 4 0 0 0 7.188 3.514l.002-.004c4.762-9.73 11.287-12.575 17.383-11.973 6.054.599 12.027 5.081 14.763 12.358 1.902 7.219.586 12.478-3.304 15.888-3.929 3.444-11.44 5.401-23.14 3.19v.004l-.063-.014a4 4 0 0 0-1.424 7.871c.022.004.04.004.062.008v.004c11.489 1.982 18.206 7.844 20.696 13.83 2.489 5.987 1.255 12.137-4.733 16.862l-.137.11c-5.267 4.547-11.009 5.18-16.154 2.253s-10.033-10.042-11.314-22.688h-.002v-.017a4 4 0 0 0-7.957.824l.002.016c1.374 13.003-.858 19.494-4.077 22.38-3.167 2.841-8.693 3.412-16.482 1.832-11.429-4.22-15.057-26.9 4.668-34.697v-.002l.031-.01a4 4 0 0 0-2.97-7.428l-.034.016v-.002c-10.292 4.17-19.321 3.56-25.539.352-6.181-3.19-9.757-8.735-9.635-16.051.7-8.23 5.456-12.001 12.563-12.574 7.143-.576 16.688 3.003 24.535 12.066l.002-.002.02.025a4 4 0 0 0 6.027-5.26l-.022-.02.002-.003c-7.763-8.83-10.179-19.112-8.732-26.877 1.443-7.747 6.016-12.812 13.979-13.262z" overflow="visible"></path>
  <ellipse cx="808.61" cy="702.769" fill="#f2a93b" paint-order="stroke fill markers" rx="13.34" ry="13.718"></ellipse>
  <g transform="translate(-473.493 89.258)">
    <path fill="#f4e6d0" d="M810.91 724.276c2.739 27.037 21.417 33.973 34.062 23.061 14.446-11.398 7.333-33.443-17.76-37.773 24.857 4.698 35.528-7.582 31.013-24.254-6.385-17.351-28.946-22.598-39.566-.894 10.595-21.698 1.47-43.763-17.557-43.241-19.539 1.05-25.088 27.446-8.085 46.785-17.097-19.748-42.544-17.053-44.135 2.916-.397 17.628 18.335 28.672 40.69 19.616-22.576 8.924-19.837 36.845-4.375 42.28 17.054 3.578 28.584-1.326 25.713-28.496" overflow="visible"></path>
    <ellipse cx="807.812" cy="702.027" fill="#f2a93b" paint-order="stroke fill markers" rx="12.559" ry="13.328"></ellipse>
    <path fill="#3b1f0f" d="m800.993 637.176-.106.004c-11.542.62-19.5 9.266-21.462 19.797-.964 5.17-.639 10.834 1.017 16.505-5.254-2.35-10.617-3.349-15.629-2.945-10.252.827-18.99 8.368-19.918 20.022a4 4 0 0 0-.011.226c-.232 10.249 5.34 19.004 13.978 23.461 4.434 2.288 9.64 3.456 15.273 3.436-9.416 13.817-4.837 33.741 9.737 38.863a4 4 0 0 0 .504.14c9.063 1.902 17.728 1.81 23.82-3.654 2.162-1.938 3.667-4.56 4.816-7.578 5.272 13.03 9.382 21.928 11.016 30.018 2.031 10.057.773 19.346-6.922 36.191a4 4 0 0 0 1.977 5.3 4 4 0 0 0 5.3-1.976c8.043-17.606 9.859-29.355 7.487-41.1-1.222-6.048-3.41-11.965-6.205-18.818 7.275 2.539 15.486.796 21.836-4.638 8.413-6.676 10.834-17.218 7.113-26.166-1.696-4.079-4.617-7.782-8.518-10.867 4.003-.994 7.54-2.542 10.274-4.938 6.492-5.69 8.246-14.853 5.717-24.195a4 4 0 0 0-.108-.336c-3.675-9.986-12.119-16.76-21.554-17.692-4.526-.447-9.186.6-13.467 3.088.478-5.889-.272-11.494-2.266-16.375-3.847-9.417-12.624-16.077-23.7-15.773m.275 8.004c7.918-.195 13.202 3.905 16.018 10.797 2.823 6.909 2.644 16.72-2.219 26.681h-.002v.002a4 4 0 0 0 7.188 3.514v-.002l.002-.002c4.762-9.73 11.287-12.575 17.382-11.973 6.055.599 12.027 5.082 14.764 12.358 1.902 7.219.586 12.479-3.305 15.888-3.928 3.444-11.44 5.402-23.14 3.19v.004l-.063-.014a4 4 0 0 0-1.424 7.871c.023.004.04.004.063.008v.004c11.488 1.982 18.206 7.843 20.695 13.83 2.49 5.986 1.256 12.137-4.732 16.861l-.137.112c-5.267 4.545-11.009 5.178-16.154 2.252-2.747-1.562-5.42-4.318-7.51-8.471a383 383 0 0 1-2.195-5.66c-.732-2.513-1.286-5.358-1.61-8.557h-.002v-.017a4 4 0 0 0-7.957.824l.002.015c1.375 13.004-.857 19.494-4.076 22.381-3.168 2.841-8.694 3.412-16.482 1.832-11.429-4.22-15.058-26.9 4.668-34.697v-.002l.031-.01a4 4 0 0 0-2.97-7.427l-.034.015v-.002c-10.292 4.17-19.322 3.56-25.539.352-6.182-3.19-9.757-8.735-9.635-16.051.7-8.23 5.455-12.001 12.563-12.574 7.143-.576 16.688 3.003 24.535 12.066l.002-.002.02.026a4 4 0 0 0 6.027-5.26l-.022-.022.002-.002c-7.763-8.83-10.179-19.112-8.732-26.877 1.443-7.747 6.016-12.812 13.978-13.261" overflow="visible"></path>
  </g>
  <path fill="#a86a2c" d="M288.927 799.193c-50.636 16.775-69.571-37.308-91.383-61.417-3.791-12.837-19.82-60.457 49.565-83.245 45.076-14.531 67.92 18.357 74.582 48.276-6.459 24.18 8.523 82.708-32.764 96.386" overflow="visible"></path>
  <path fill="#a86a2c" d="M236.599 656.881c-.52-8.636-3.539-16.967-7.825-24.426 4.975-4.081 18.156-5.267 18.156-5.267 6.544 6.988 8.762 15.75 11.708 24.552-3.92.199-14.91 3.944-22.04 5.141" overflow="visible"></path>
  <path fill="#3b1f0f" d="M247.09 623.19a4 4 0 0 0-.518.013s-3.5.313-7.662 1.17c-4.161.857-8.994 1.971-12.674 4.99a4 4 0 0 0-.93 5.086c3.833 6.67 6.525 13.978 7.204 21.408-26.03 11.638-37.587 27.766-41.5 43.036-7.529 36.392 15.205 61.878 38.523 87.685 14.356 15.03 33.975 25.25 60.653 16.412 11.198-3.71 18.92-10.723 23.834-19.224s7.177-18.385 8.324-28.371c2.292-19.973.388-40.988 3.21-51.555.335-1.25-4.223-28.279-24.189-44.912-8.204-6.835-18.62-11.299-31.033-11.83a61.5 61.5 0 0 0-8.91.279c-2.494-7.754-5.069-15.98-11.572-22.924a4 4 0 0 0-2.76-1.264m-1.904 8.304c3.852 4.77 6.01 10.688 8.123 17.111-1.71.417-3.533.933-5.526 1.47-2.725.733-5.236 1.286-7.803 1.884-.972-6.262-3.037-12.228-5.824-17.777 1.875-.762 4.101-1.506 6.367-1.973 2.531-.521 3.505-.582 4.663-.715m24.802 23.461c10.683.394 19.24 4.272 26.258 10.12 9.95 8.288 16.64 20.951 20.254 33.689-8.672.204-27.284 1.706-53.602 9.554-28.765 8.578-52.098 19.312-61.189 23.733-3.952-10.43-5.533-21.091-2.95-31.172 3.857-15.047 15.774-31.434 49.579-42.541a82 82 0 0 1 4.533-1.32c2.9-.727 5.306-1.25 5.969-1.284h.002a4 4 0 0 0 .857-.138c3.635-.56 7.06-.76 10.29-.64m46.858 51.764c-2.14 13.317-.541 31.141-2.45 47.763-1.076 9.378-3.212 18.204-7.302 25.28-4.09 7.075-9.981 12.506-19.426 15.634-23.959 7.937-39.126-.498-52.35-14.343-10.388-10.876-22.74-25.758-30.431-41.65 8.562-4.18 31.675-14.882 60.297-23.417 26.203-7.814 43.868-9.136 51.662-9.267" overflow="visible"></path>
  <path fill="url(#b)" d="M618.294 903.364c-48.864-17.016-27.03-70.88-32.278-92.653-6.525-7.144 17.45-73.556 91.991-48.345 52.843 22.756 54.097 88.116 29.122 94.85-20.543 18.33-39.08 63.473-88.835 46.148" overflow="visible"></path>
  <path fill="#a86a2c" d="M660.709 757.078s1.794-18.78 27.149-23.328c25.354-4.548 28.942 9.361 28.625 15.628s-4.538 13.016-15.473 13.152c-10.935.137-9.559 5.979-9.559 5.979-10.277-6.461-19.482-10.523-30.742-11.431" overflow="visible"></path>
  <path fill="#3b1f0f" d="M696.354 728.873c-2.79.038-5.85.338-9.202.94-13.603 2.44-21.514 8.99-25.673 15.04a29.8 29.8 0 0 0-4.055 8.592c-5.818-.723-11.287-.853-16.412-.492-18.543 1.308-32.572 9.07-42.213 18.61-7.713 7.632-12.704 16.268-15.403 23.664-1.349 3.697-2.134 7.075-2.347 10.033-.178 2.469-.152 4.754 1.152 6.888.959 4.494.735 11.5.21 19.573-.544 8.344-1.283 17.83-.602 27.384s2.796 19.257 8.181 27.8c5.386 8.542 14.066 15.736 26.989 20.236 26.041 9.068 45.193 1.542 59.279-10.434 13.955-11.865 23.844-27.688 33.265-36.225 7.06-2.497 12.124-8.67 14.803-16.42 2.858-8.264 3.364-18.404 1.354-29.007-3.164-16.685-12.74-34.624-30.164-47.323.317-.321 1.506-1.152 5.545-1.203 6.283-.078 11.253-2.172 14.51-5.463s4.708-7.53 4.908-11.486c.204-4.043-.814-10.283-5.979-15.02-3.874-3.552-9.78-5.8-18.146-5.687m.052 7.97c6.778-.142 10.522 1.628 12.688 3.614 2.888 2.648 3.507 6.495 3.394 8.719-.117 2.31-.936 4.579-2.603 6.263s-4.275 3.034-8.926 3.092c-5.711.072-9.455 1.698-11.553 4.176-7.637-4.407-15.242-7.504-23.674-8.883a21.2 21.2 0 0 1 2.34-4.44c3.077-4.475 8.74-9.589 20.492-11.696 2.987-.536 5.583-.797 7.842-.844m-47.09 23.835c8.09.35 17.144 2.03 27.256 5.435 25.05 10.851 37.682 31.625 41.248 50.432 1.787 9.423 1.226 18.307-1.054 24.902-1.966 5.686-5.01 9.482-8.801 11.227-5.993-4.977-26.188-20.768-52.016-30.418-23.437-8.757-50.708-10.077-62.879-10.19-1.01-.009-1.916-.01-2.707-.006a32 32 0 0 0-.459-2.287 4 4 0 0 0-.935-1.76c.13.143.208.22.244.231h.008v-.002h.004l.002-.002h.002v-.002l.002-.002.002-.002v-.002c.04-.115-.306-.992-.205-2.396.14-1.943.74-4.729 1.885-7.868 2.29-6.278 6.73-14.008 13.513-20.72 8.479-8.39 20.484-15.4 37.12-16.495a71 71 0 0 1 7.77-.076zm-58.38 59.402c10.377.033 38.94.975 62.212 9.67 22.514 8.412 40.746 21.891 47.973 27.674-9.691 9.816-18.593 23.451-30.047 33.19-12.757 10.846-27.752 17.23-51.465 8.972-11.51-4.008-18.424-9.926-22.851-16.95-4.428-7.022-6.345-15.339-6.969-24.099s.058-17.886.606-26.297c.278-4.273.547-8.345.54-12.16" overflow="visible"></path>
  <path fill="#c63d14" d="M647.137 146.227c27.667 6.846 63.774 14.9 81.925-3.514 17.998-18.257 15.54-51.955 1.095-73.135-11.689-17.14-32.964-29.893-58.123-31.498-37.627-2.4-71.968 19.476-75.809 47.306-3.675 26.633 24.813 54.383 50.912 60.84" overflow="visible"></path>
  <path fill="url(#b)" d="M653.87 105.702a26.168 19.185 0 0 1-26.168 19.185 26.168 19.185 0 0 1-26.168-19.185 26.168 19.185 0 0 1 26.168-19.185 26.168 19.185 0 0 1 26.167 19.185" overflow="visible"></path>
  <path fill="#3b1f0f" d="M664.965 33.91c-16.963.252-32.923 5.117-45.633 13.1-14.525 9.123-24.947 22.454-27.068 37.828-.811 5.873-.233 11.708 1.406 17.338-3.525.912-6.746 3.04-9.645 5.506-3.95 3.358-7.312 7.381-8.242 12.226a4 4 0 1 0 7.858 1.506c.296-1.547 2.556-5.077 5.566-7.637 2.53-2.152 5.583-3.59 7.37-3.974 1.508 3.2 3.336 6.303 5.415 9.271-6.164 1.62-11.127 6.492-12.387 13.059a4 4 0 1 0 7.858 1.508c.87-4.535 4.435-7.258 9.281-7.149.366.008.732-.034 1.086-.125a82 82 0 0 0 4.164 4.272c-5.187 2.637-8.78 7.411-10.1 13.304a4 4 0 0 0 7.807 1.746c.965-4.311 2.882-6.639 6.594-8.234a4 4 0 0 0 1.797-1.53c8.576 6.75 18.365 11.78 28.084 14.184l.342.084a4 4 0 0 0-.418 2.461c.33 2.212-.251 3.804-1.637 5.543s-3.68 3.401-6.233 4.66a4 4 0 1 0 3.54 7.174c3.282-1.62 6.516-3.795 8.95-6.85 2.334-2.927 3.835-6.87 3.364-11.152 6.206 1.465 12.72 2.878 19.3 3.963-2.057 3.75-2.772 7.934-1.638 11.801 1.142 3.892 3.9 7.175 7.693 9.998a4 4 0 1 0 4.778-6.418c-2.896-2.156-4.3-4.15-4.793-5.832s-.333-3.341.998-5.742a4 4 0 0 0 .422-2.735c1.159.14 2.302.171 3.459.284.175.036.343.088.52.123a4 4 0 0 0 1.308.027c1.796.15 3.604.373 5.383.441 2.443.094 4.875.105 7.279.016q.007.145.025.291c1.359 10.825 5.74 19.976 13.05 26.834a4 4 0 1 0 5.474-5.834c-5.92-5.554-9.417-12.68-10.586-21.996 9.61-1.4 18.4-4.878 25.154-11.729 9.927-10.07 14.046-24.167 13.865-38.33s-4.595-28.548-12.314-39.867c-12.442-18.243-34.813-31.555-61.172-33.236a93 93 0 0 0-7.324-.178m.119 8c2.215-.034 4.45.019 6.695.162 23.958 1.528 44.136 13.724 55.073 29.76 6.725 9.861 10.763 22.916 10.923 35.461s-3.491 24.424-11.562 32.611c-7.94 8.055-20.198 10.587-34.39 10.041a112 112 0 0 1-5.69-.37c-5.438-1.083-10.483-3.16-15.053-5.991-4.57-2.832-8.665-6.419-12.197-10.52-3.217-3.734-5.967-7.896-8.188-12.302 4.341-3.933 7.174-9.197 7.174-15.059 0-6.772-3.78-12.747-9.299-16.793a30 30 0 0 0-3.724-2.328c.69-4.141 1.95-8.077 3.804-11.658 4.37-8.44 11.925-15.09 24.022-18.334a4 4 0 0 0-2.072-7.727c-13.997 3.754-23.702 12.05-29.053 22.383-2.284 4.41-3.64 7.87-4.41 12.41a39 39 0 0 0-9.436-1.138c-8.018 0-15.35 2.347-20.867 6.392-2.596 1.903-4.807 4.234-6.422 6.873-.574-3.304-.672-6.609-.225-9.851 1.72-12.456 10.389-23.976 23.4-32.149 11.387-7.15 25.989-11.632 41.497-11.873m16.537 29.635c-5.422 0-9.816 3.785-9.816 8.455s4.394 8.455 9.816 8.455S691.44 84.67 691.44 80s-4.396-8.455-9.818-8.455m-53.92 18.973c6.434 0 12.186 1.947 16.139 4.845s6.03 6.517 6.03 10.34c0 3.824-2.077 7.442-6.03 10.34s-9.705 4.844-16.139 4.844-12.186-1.946-16.139-4.844-6.029-6.516-6.029-10.34 2.077-7.442 6.03-10.34c3.952-2.898 9.705-4.845 16.138-4.845m94.389 11.5c-4.205 0-7.613 3.874-7.613 8.654s3.408 8.656 7.613 8.656 7.615-3.876 7.615-8.656-3.41-8.654-7.615-8.654M693.36 114.92c-5.422 0-9.818 4.664-9.818 10.418s4.396 10.418 9.818 10.418 9.819-4.664 9.819-10.418-4.397-10.418-9.819-10.418m-49.388 10.348q.485.934.998 1.855c3.759 6.748 8.65 12.905 14.527 17.941a579 579 0 0 1-11.4-2.72c-8.916-2.206-18.402-7.234-26.535-13.928 1.985.31 4.038.47 6.138.47 5.957 0 11.535-1.294 16.272-3.618" overflow="visible"></path>
</svg>